<?xml version="1.0" encoding="UTF-8" standalone="no"?>
<!-- Created with Inkscape (http://www.inkscape.org/) -->
<svg id="svg3390" xmlns:rdf="http://www.w3.org/1999/02/22-rdf-syntax-ns#" xmlns="http://www.w3.org/2000/svg" height="128" viewBox="0 0 128 128" width="128" version="1.1" xmlns:cc="http://creativecommons.org/ns#" xmlns:dc="http://purl.org/dc/elements/1.1/">
 <title id="title4342">MSUProj</title>
 <metadata id="metadata3396">
  <rdf:RDF>
   <cc:Work rdf:about="">
    <dc:format>image/svg+xml</dc:format>
    <dc:type rdf:resource="http://purl.org/dc/dcmitype/StillImage"/>
    <dc:title>MSUProj</dc:title>
    <cc:license rdf:resource="Zlib"/>
    <dc:creator>
     <cc:Agent>
      <dc:title>Petr Tsymbarovich</dc:title>
     </cc:Agent>
    </dc:creator>
   </cc:Work>
  </rdf:RDF>
 </metadata>
 <ellipse id="path3538" fill-opacity=".80311" rx="74.155" ry="73.844" cy="96.736" cx="38.196" fill="#0080ff"/>
 <g id="g3526" fill-rule="evenodd" transform="matrix(.17430 0 0 .17430 -9.8211 83.212)" stroke="#000" stroke-width="1px">
  <path id="path3404" fill="#acb1b7" stroke="#000" d="m689.15-344.38s-97.183 8.8558-208.17 18.947l-10.012-5.2441 1.0547-11.594h-33.729l3.1602 10.539-23.188 9.4863-0.40234 2.5508c-160.93 14.614-332.44 30.123-335.83 30.123l2.1094 18.973 331.27-33.59-0.31055 1.9707 8.4316 14.756 4.2168 134.91-23.189 6.3242-3.1602 5.2695s7.3777 4.2169 14.756 7.3789c7.3781 3.1621 1.0527 13.701 1.0527 13.701l11.596 16.865h12.646l6.3242 11.594 3.1621 11.594 6.3242-1.0527 4.2168-11.596 6.3242-10.539 15.811-1.0547 23.188-24.242 2.1094-27.404-20.027-20.027s-7.5845-19.571 1.707-37.607c1.3327-2.587 28.305-2.5609 29.189-5.1465 1.287-3.7628 2.0154-7.4754 1.9356-10.992-0.0513-2.2582-33.833 7.044-33.887 4.7344-0.68214-29.281-1.5452-61.449-2.1074-64.822l7.3789-7.377v-15.117l193.94-19.666 2.1074-12.648z"/>
  <g id="g8" fill="#00f">
   <path id="path3465" d="m119.93-241.48 20.067 142.67 75.621-14.088-11.252-138.1z"/>
   <path id="path3467" d="m222.3-114.15 71.736-13.365-7.5499-132.76-75.992 8.5735z"/>
   <path id="path3469" d="m292.73-260.98 6.2088 132.55 66.833-12.451-2.253-128.08z"/>
   <path id="path3471" d="m367.8-269.45 3.2556 127.58 60.98-11.361 2.0373-123.7z"/>
   <path id="path3477" d="m580.97-293.96-9.1176 115.46-51.345 9.0866 5.9122-118.13z"/>
   <path id="path3479" d="m585.89-294.54-9.0798 115.16 49.753-8.8049 10.942-112.43z"/>
   <path id="path3481" d="m631.85-189.12 10.512-112.06 47.334-5.5687-13.837 109.84z"/>
   <path id="path3483" d="m692.94-307.13-12.899 109.48 43.168-7.6396 14.465-107.11z"/>
   <path id="path3485" d="m741.38-312.83-14.498 106.89 40.766-6.8808 17.947-105.21z"/>
  </g>
 </g>
</svg>
